<svg width="51" height="46" viewBox="0 0 51 46" fill="none" xmlns="http://www.w3.org/2000/svg">
<path d="M13.2554 28.2699C13.7027 22.3895 18.5395 17.6365 24.4287 17.3012C26.9775 17.1533 29.3782 17.7976 31.3767 19.0269C42.4792 24.7594 37.903 2.32241 27.2092 0.202297C23.0835 -0.616165 18.5524 1.05034 16.1517 5.17552L1.54781 30.4657C-2.30108 37.1514 2.19787 45.4281 9.68324 46C13.6769 46 16.1967 43.0023 16.2257 39.5213C16.2514 35.3797 12.8499 34.0025 13.2554 28.2699Z" fill="#0B59DB"/>
<path d="M37.0501 29.1771C37.0501 31.7508 36.2391 34.1207 34.865 36.0666C33.0982 39.3865 34.2857 43.1008 36.9793 44.9021C37.993 45.5759 39.2223 45.9835 40.5965 45.9999C42.8266 45.8257 44.78 44.9777 46.344 43.6892C50.0192 40.6454 51.4383 35.1627 48.748 30.4656C44.7221 23.5169 37.0501 22.1265 37.0501 29.1771Z" fill="#0B59DB"/>
<path d="M17.9312 34.0023C20.3062 37.5556 25.0948 38.8277 28.9179 36.8982C36.1555 33.2431 31.264 26.6756 37.6745 23.1651C41.4815 21.0582 43.5508 24.217 46.6338 21.4822C48.0369 20.2693 48.5582 18.2511 47.921 16.4958C46.2862 12.0189 39.9014 12.6632 39.0357 17.242C38.022 21.8931 32.828 23.0764 28.86 21.5874C26.3113 20.3285 23.2283 20.358 20.6248 21.9226C16.4831 24.4372 15.2087 29.9068 17.9312 34.0023Z" fill="#0B1422"/>
<path d="M2.2265 39.4424C0.749382 36.6057 0.823401 33.2562 2.42925 30.4754L17.0331 5.1853C18.7259 2.25988 21.767 0.521057 25.1396 0.521057C36.4159 0.521057 41.4073 23.53 31.9138 17.6332C29.6546 16.2428 27.0061 15.5985 24.3737 15.7464C17.9471 16.1277 12.7208 21.2456 12.2446 27.6683C11.8262 33.5488 14.6614 34.41 15.2406 38.2886C16.1932 44.8265 6.29422 47.2687 2.2265 39.4424Z" fill="#0B59DB"/>
<path d="M35.734 36.1094C37.269 33.9169 38.08 31.3399 38.08 28.6643C38.08 19.1879 53.0733 29.7918 48.053 39.4457C43.3738 48.4224 31.766 43.7155 35.734 36.1094Z" fill="#0B59DB"/>
<path d="M17.6835 27.126C18.3497 24.1118 20.9403 21.686 23.9492 21.1864C27.988 20.5126 30.3597 24.2861 35.9464 21.64C38.0028 20.6605 39.6505 19.1551 40.0431 16.9002C40.7092 13.3305 45.6877 12.8769 46.9621 16.3447C47.6701 18.261 46.6016 20.1181 44.9636 20.8216C42.8364 21.7419 40.4035 20.0754 37.0888 21.9917C33.3848 24.1283 33.24 29.0555 31.9656 32.0532C28.9019 39.2517 15.6142 36.517 17.6835 27.126Z" fill="#0B1422"/>
<path opacity="0.4" d="M7.14409 33.5521C7.14409 21.709 16.821 11.825 28.4159 11.825C31.3863 11.825 34.2279 12.4759 36.8185 13.6395C36.1202 8.28823 31.6888 0.521057 25.1367 0.521057C21.7641 0.521057 18.7261 2.26317 17.0302 5.1853L2.42632 30.4754C0.820471 33.253 0.746452 36.6024 2.22357 39.4424C4.11584 43.0844 7.27282 44.501 10.0114 44.317C8.19642 41.1286 7.14409 37.4472 7.14409 33.5521Z" fill="#0B59DB"/>
<path opacity="0.4" d="M39.2871 25.4103C41.5655 28.8649 42.9075 32.9999 42.9075 37.4045C42.9075 39.7974 42.5052 42.1082 41.7812 44.2743C44.0853 43.9555 46.4668 42.4895 48.0533 39.4425C52.1854 31.4912 42.7466 22.899 39.2871 25.4103Z" fill="#0B59DB"/>
<path opacity="0.4" d="M19.5789 33.986C22.9483 28.6545 28.5221 24.8679 34.9004 24.056C35.4572 23.2408 36.1619 22.5275 37.092 21.9917C40.4066 20.0754 42.8396 21.7419 44.9667 20.8216C46.6015 20.1181 47.6732 18.261 46.9652 16.3447C45.6908 12.8769 40.7124 13.3305 40.0462 16.9002C39.6568 19.1518 38.0059 20.6605 35.9495 21.64C30.3629 24.2861 27.9879 20.5126 23.9523 21.1864C20.9434 21.6828 18.3496 24.1118 17.6866 27.126C17.0205 30.1336 17.9344 32.4509 19.5789 33.986Z" fill="white"/>
</svg>
